<?xml version="1.0" encoding="UTF-8" standalone="no"?>
<!-- Created with Inkscape (http://www.inkscape.org/) -->

<svg
   xmlns:dc="http://purl.org/dc/elements/1.1/"
   xmlns:cc="http://creativecommons.org/ns#"
   xmlns:rdf="http://www.w3.org/1999/02/22-rdf-syntax-ns#"
   xmlns:svg="http://www.w3.org/2000/svg"
   xmlns="http://www.w3.org/2000/svg"
   xmlns:sodipodi="http://sodipodi.sourceforge.net/DTD/sodipodi-0.dtd"
   xmlns:inkscape="http://www.inkscape.org/namespaces/inkscape"
   id="svg3364"
   version="1.1"
   inkscape:version="0.48.5 r10040"
   width="1000"
   height="206.78993"
   xml:space="preserve"
   sodipodi:docname="Protecting-charities%u2019-funds-detecting-fraud-against-charities.pdf"><metadata
     id="metadata3370"><rdf:RDF><cc:Work
         rdf:about=""><dc:format>image/svg+xml</dc:format><dc:type
           rdf:resource="http://purl.org/dc/dcmitype/StillImage" /><dc:title></dc:title></cc:Work></rdf:RDF></metadata><defs
     id="defs3368"><clipPath
       clipPathUnits="userSpaceOnUse"
       id="clipPath3378"><path
         d="m 340.158,759.911 198.425,0 0,40.876 -198.425,0 0,-40.876 z"
         id="path3380"
         inkscape:connector-curvature="0" /></clipPath><clipPath
       clipPathUnits="userSpaceOnUse"
       id="clipPath3538"><path
         d="m 0,0 595.276,0 0,841.89 L 0,841.89 0,0 z"
         id="path3540"
         inkscape:connector-curvature="0" /></clipPath><clipPath
       clipPathUnits="userSpaceOnUse"
       id="clipPath3548"><path
         d="m 0,841.89 595.276,0 L 595.276,0 0,0 0,841.89 z"
         id="path3550"
         inkscape:connector-curvature="0" /></clipPath></defs><sodipodi:namedview
     pagecolor="#ffffff"
     bordercolor="#666666"
     borderopacity="1"
     objecttolerance="10"
     gridtolerance="10"
     guidetolerance="10"
     inkscape:pageopacity="0"
     inkscape:pageshadow="2"
     inkscape:window-width="1047"
     inkscape:window-height="1029"
     id="namedview3366"
     showgrid="false"
     fit-margin-left="0.5"
     fit-margin-bottom="0.5"
     fit-margin-top="0.5"
     fit-margin-right="0.5"
     inkscape:zoom="0.36441814"
     inkscape:cx="633.80877"
     inkscape:cy="-235.52858"
     inkscape:window-x="866"
     inkscape:window-y="-14"
     inkscape:window-maximized="0"
     inkscape:current-layer="g3372" /><g
     id="g3372"
     inkscape:groupmode="layer"
     inkscape:label="Protecting-charities%u2019-funds-detecting-fraud-against-charities"
     transform="matrix(1.25,0,0,-1.25,-424.69745,1156.1803)"><g
       id="g3374"
       transform="matrix(4.0277223,0,0,4.0277223,-1029.904,-2300.8034)"><g
         id="g3376"
         clip-path="url(#clipPath3378)"><g
           id="g3382"
           transform="translate(366.3681,788.8575)"><path
             d="m 0,0 2.622,0 0,0.039 c -1.774,0.825 -2.41,2.419 -2.447,3.413 1.182,0 1.67,0 2.409,-0.976 l 0,3.23 C 1.873,4.756 1.357,4.749 0.147,4.749 c 0,1.233 0.39,2.004 1.183,2.541 l -4.244,0 c 0.83,-0.537 1.057,-1.303 1.057,-2.534 -1.199,0 -1.714,0 -2.339,0.95 l 0,-3.23 C -3.582,3.452 -3.056,3.452 -1.9,3.452 -1.949,2.476 -2.372,0.836 -4.229,0.039 L -4.229,0 -1.596,0 0,0 z"
             style="fill:#0d1348;fill-opacity:1;fill-rule:nonzero;stroke:none"
             id="path3384"
             inkscape:connector-curvature="0" /></g><g
           id="g3386"
           transform="translate(385.2075,782.5062)"><path
             d="m 0,0 c -0.119,0 -0.233,-0.023 -0.337,-0.065 0.061,0.387 0.083,0.752 0.074,1.097 0.104,-0.041 0.217,-0.064 0.337,-0.064 0.515,0 0.923,0.407 0.923,0.922 0,0.5 -0.408,0.908 -0.923,0.908 -0.237,0 -0.451,-0.09 -0.611,-0.234 -0.123,0.359 -0.28,0.686 -0.458,0.986 0.487,0.02 0.873,0.413 0.873,0.916 0,0.499 -0.406,0.906 -0.911,0.906 -0.41,0 -0.756,-0.262 -0.877,-0.623 -0.077,0.082 -0.154,0.162 -0.23,0.238 -0.214,0.213 -0.437,0.406 -0.668,0.582 0.259,0.164 0.434,0.451 0.434,0.779 0,0.501 -0.423,0.907 -0.923,0.907 -0.506,0 -0.906,-0.392 -0.921,-0.88 -0.381,0.153 -0.776,0.266 -1.186,0.337 0.106,0.151 0.168,0.334 0.168,0.53 0,0.506 -0.419,0.907 -0.923,0.907 -0.51,0 -0.922,-0.401 -0.922,-0.907 0,-0.167 0.045,-0.324 0.123,-0.461 C -7.032,6.775 -7.107,6.771 -7.182,6.763 -7.541,6.725 -7.889,6.672 -8.227,6.608 c 0.031,0.092 0.049,0.19 0.049,0.293 0,0.51 -0.419,0.922 -0.924,0.922 -0.51,0 -0.932,-0.412 -0.932,-0.922 0,-0.261 0.111,-0.496 0.288,-0.664 -0.476,-0.141 -0.93,-0.297 -1.365,-0.458 0.009,0.052 0.015,0.104 0.015,0.159 0,0.511 -0.423,0.918 -0.933,0.918 -0.505,0 -0.913,-0.407 -0.913,-0.918 0,-0.298 0.14,-0.56 0.356,-0.728 -0.064,-0.025 -0.13,-0.051 -0.194,-0.076 -0.279,-0.107 -0.597,-0.24 -0.931,-0.386 0.009,0.053 0.015,0.107 0.015,0.163 0,0.514 -0.412,0.934 -0.922,0.934 -0.515,0 -0.922,-0.42 -0.922,-0.934 0,-0.339 0.183,-0.631 0.459,-0.786 -0.513,-0.241 -1.011,-0.483 -1.432,-0.689 0.039,0.488 0.088,0.876 0.149,0.993 l -3.371,0 -3.386,0 c 0.04,-0.078 0.077,-0.419 0.108,-0.915 -0.385,0.188 -0.823,0.4 -1.274,0.611 0.276,0.156 0.46,0.447 0.46,0.787 0,0.514 -0.408,0.933 -0.923,0.933 -0.51,0 -0.922,-0.419 -0.922,-0.933 0,-0.056 0.006,-0.11 0.015,-0.163 -0.334,0.146 -0.652,0.279 -0.931,0.386 -0.064,0.024 -0.131,0.051 -0.195,0.076 0.217,0.167 0.356,0.43 0.356,0.727 0,0.512 -0.407,0.919 -0.912,0.919 -0.51,0 -0.933,-0.407 -0.933,-0.919 0,-0.054 0.006,-0.107 0.015,-0.158 -0.435,0.161 -0.889,0.316 -1.365,0.458 0.177,0.168 0.288,0.402 0.288,0.663 0,0.511 -0.422,0.923 -0.933,0.923 -0.504,0 -0.923,-0.412 -0.923,-0.923 0,-0.102 0.017,-0.2 0.048,-0.292 -0.337,0.064 -0.685,0.117 -1.044,0.155 -0.075,0.008 -0.15,0.012 -0.224,0.018 0.078,0.136 0.123,0.294 0.123,0.461 0,0.505 -0.412,0.907 -0.922,0.907 -0.504,0 -0.923,-0.402 -0.923,-0.907 0,-0.196 0.062,-0.379 0.168,-0.531 -0.409,-0.07 -0.805,-0.183 -1.187,-0.336 -0.014,0.488 -0.414,0.88 -0.92,0.88 -0.5,0 -0.923,-0.406 -0.923,-0.907 0,-0.328 0.176,-0.615 0.434,-0.779 -0.231,-0.176 -0.454,-0.369 -0.667,-0.582 -0.077,-0.076 -0.154,-0.156 -0.231,-0.238 -0.122,0.361 -0.467,0.623 -0.877,0.623 -0.505,0 -0.911,-0.407 -0.911,-0.907 0,-0.502 0.386,-0.895 0.872,-0.915 -0.177,-0.3 -0.334,-0.628 -0.457,-0.986 -0.16,0.144 -0.374,0.234 -0.611,0.234 -0.515,0 -0.923,-0.408 -0.923,-0.908 0,-0.515 0.408,-0.923 0.923,-0.923 0.12,0 0.233,0.024 0.337,0.065 -0.009,-0.345 0.013,-0.71 0.074,-1.097 -0.104,0.041 -0.218,0.065 -0.337,0.065 -0.5,0 -0.912,-0.424 -0.912,-0.938 0,-0.5 0.412,-0.907 0.912,-0.907 0.291,0 0.548,0.13 0.716,0.334 0.049,-0.135 0.1,-0.271 0.157,-0.41 0.113,-0.277 0.215,-0.525 0.309,-0.75 -0.076,0.018 -0.155,0.03 -0.237,0.03 -0.499,0 -0.911,-0.406 -0.911,-0.913 0,-0.51 0.412,-0.933 0.911,-0.933 0.352,0 0.65,0.189 0.81,0.467 0.208,-0.472 0.368,-0.807 0.56,-1.198 l -0.622,-0.238 4.635,-12.5 13.305,0 13.299,0 4.63,12.5 -0.527,0.201 c 0.201,0.408 0.364,0.747 0.579,1.234 0.159,-0.278 0.457,-0.467 0.809,-0.467 0.499,0 0.911,0.423 0.911,0.933 0,0.507 -0.412,0.913 -0.911,0.913 -0.082,0 -0.161,-0.012 -0.237,-0.03 0.094,0.225 0.195,0.473 0.308,0.749 0.058,0.139 0.109,0.275 0.158,0.411 0.168,-0.204 0.425,-0.334 0.716,-0.334 0.5,0 0.913,0.407 0.913,0.907 C 0.913,-0.424 0.5,0 0,0 m -19.642,2.941 c 0.447,0 0.81,-0.363 0.81,-0.811 0,-0.448 -0.363,-0.81 -0.81,-0.81 -0.449,0 -0.811,0.362 -0.811,0.81 0,0.448 0.362,0.811 0.811,0.811 m 0,-2.181 c 0.447,0 0.81,-0.36 0.81,-0.809 0,-0.449 -0.363,-0.811 -0.81,-0.811 -0.449,0 -0.811,0.362 -0.811,0.811 0,0.449 0.362,0.809 0.811,0.809 m 0,-2.113 c 0.447,0 0.81,-0.363 0.81,-0.812 0,-0.447 -0.363,-0.809 -0.81,-0.809 -0.449,0 -0.811,0.362 -0.811,0.809 0,0.449 0.362,0.812 0.811,0.812 m -7.153,-14.762 -2.432,1.362 2.427,1.362 2.434,-1.364 -2.429,-1.36 z m 2.593,3.869 c -1.927,-0.228 -2.888,1.075 -3.045,1.982 -0.164,0.82 -0.028,1.792 0.574,2.172 0.609,0.373 1.64,0.157 1.874,-0.782 0.515,1.21 0.531,2.242 -0.174,3.055 -0.776,0.918 -1.91,0.673 -2.329,0.072 0.25,2.752 -1.172,4.066 -1.938,4.32 -0.673,-0.438 -1.715,-2.074 -0.764,-4.668 -0.755,0.348 -1.949,0.186 -2.27,-0.918 -0.315,-1.037 -0.038,-2.035 0.554,-2.823 0.119,1.211 1.07,1.466 1.716,1.277 0.737,-0.239 1.03,-1.195 1.123,-1.857 0.141,-0.977 -0.386,-2.585 -2.459,-2.846 -1.629,-0.204 -2.829,1.287 -3.506,3.134 0.514,0.054 1.226,0 1.797,-0.515 l -1.097,4.06 c -0.251,-0.762 -0.814,-1.189 -1.255,-1.417 -0.233,1.513 -0.14,2.921 0.348,3.544 l -0.484,-0.184 c -0.425,0.859 -0.642,1.321 -1.464,3.333 -1.089,2.646 -0.148,4.09 0.915,5.153 1.025,1.025 2.279,1.467 3.729,1.313 1.767,-0.189 3.292,-0.787 4.636,-1.315 0.188,-0.074 0.372,-0.146 0.552,-0.215 1.222,-0.471 3.281,-1.479 4.239,-1.956 0.073,-2.153 0.107,-4.773 0.107,-4.773 0.922,-0.917 1.204,-2.028 1.297,-3.148 -0.652,0.104 -1.2,0.37 -1.558,0.924 l 0,-4.213 c 0.369,0.608 0.933,0.875 1.586,0.983 -0.072,-1.644 -0.886,-3.474 -2.704,-3.692 m 4.56,-3.869 -2.432,1.362 2.428,1.362 2.434,-1.364 -2.43,-1.36 z m 7.156,0 -2.434,1.362 2.429,1.362 2.432,-1.364 -2.427,-1.36 z m 10.119,14.806 c -0.834,-2.039 -1.046,-2.486 -1.482,-3.369 l -0.584,0.222 c 0.499,-0.623 0.598,-2.052 0.358,-3.571 -0.46,0.228 -1.068,0.64 -1.308,1.444 l -1.107,-4.06 c 0.585,0.525 1.324,0.569 1.861,0.515 -0.688,-1.847 -1.883,-3.338 -3.507,-3.134 -2.084,0.261 -2.6,1.869 -2.464,2.846 0.093,0.662 0.38,1.618 1.129,1.857 0.646,0.189 1.586,-0.066 1.716,-1.277 0.597,0.788 0.857,1.786 0.554,2.823 -0.327,1.104 -1.515,1.266 -2.279,0.918 0.96,2.594 -0.077,4.23 -0.767,4.668 -0.775,-0.254 -2.177,-1.568 -1.932,-4.32 -0.425,0.601 -1.557,0.846 -2.335,-0.072 -0.7,-0.813 -0.678,-1.845 -0.173,-3.055 0.239,0.939 1.282,1.155 1.884,0.782 0.607,-0.38 0.727,-1.352 0.57,-2.172 -0.158,-0.907 -1.124,-2.21 -3.034,-1.982 -1.809,0.218 -2.623,1.997 -2.703,3.632 0.634,-0.126 1.161,-0.38 1.53,-0.923 l 0,4.213 c -0.369,-0.577 -0.896,-0.846 -1.52,-0.978 0.082,1.146 0.375,2.27 1.319,3.202 l 0,3.648 c 0,0 0.009,0.446 0.03,1.038 0.859,0.429 3.11,1.54 4.412,2.042 0.18,0.069 0.363,0.141 0.551,0.215 1.345,0.528 2.87,1.127 4.637,1.315 1.45,0.154 2.704,-0.288 3.729,-1.313 1.063,-1.063 2.003,-2.507 0.915,-5.154"
             style="fill:#0d1348;fill-opacity:1;fill-rule:nonzero;stroke:none"
             id="path3388"
             inkscape:connector-curvature="0" /></g><g
           id="g3390"
           transform="translate(344.3687,800.2323)"><path
             d="m 0,0 c -0.155,-0.001 -3.656,-0.056 -3.656,-3.656 l 0,-32.454 c 0,-0.149 0.052,-3.655 3.656,-3.655 l 42.31,0 c 0.149,0 3.656,0.052 3.656,3.655 l 0,32.454 C 45.966,-3.507 45.914,0 42.31,0 L 0,0 z m 42.31,-40.32 -42.31,0 c -4.163,0 -4.211,4.168 -4.211,4.21 l 0,32.454 c 0,4.163 4.169,4.211 4.211,4.211 l 42.31,0 c 4.163,0 4.211,-4.169 4.211,-4.211 l 0,-32.454 c 0,-4.163 -4.169,-4.21 -4.211,-4.21"
             style="fill:#0d1348;fill-opacity:1;fill-rule:nonzero;stroke:none"
             id="path3392"
             inkscape:connector-curvature="0" /></g><g
           id="g3394"
           transform="translate(405.8443,782.0333)"><path
             d="m 0,0 c -0.504,-0.407 -1.223,-0.611 -2.16,-0.611 -0.664,0 -1.245,0.149 -1.743,0.447 -0.499,0.297 -0.914,0.699 -1.246,1.206 -0.332,0.506 -0.581,1.094 -0.747,1.763 -0.167,0.668 -0.25,1.378 -0.25,2.13 0,0.731 0.086,1.431 0.257,2.1 0.171,0.668 0.423,1.258 0.755,1.77 0.332,0.512 0.747,0.919 1.246,1.222 0.498,0.303 1.079,0.454 1.744,0.454 0.483,0 0.898,-0.054 1.246,-0.164 C -0.552,10.207 -0.252,10.058 0,9.87 L -0.423,8.68 C -0.574,8.774 -0.758,8.86 -0.974,8.938 -1.191,9.016 -1.455,9.056 -1.767,9.056 -2.21,9.056 -2.585,8.938 -2.892,8.703 -3.199,8.468 -3.446,8.16 -3.632,7.779 -3.818,7.397 -3.951,6.959 -4.032,6.463 -4.113,5.966 -4.153,5.462 -4.153,4.951 c 0,-0.523 0.046,-1.026 0.136,-1.512 0.091,-0.486 0.232,-0.917 0.423,-1.293 0.191,-0.376 0.438,-0.676 0.74,-0.901 0.302,-0.224 0.664,-0.336 1.087,-0.336 0.302,0 0.551,0.034 0.748,0.102 0.196,0.067 0.384,0.159 0.566,0.274 L 0,0 z"
             style="fill:#0d1348;fill-opacity:1;fill-rule:nonzero;stroke:none"
             id="path3396"
             inkscape:connector-curvature="0" /></g><g
           id="g3398"
           transform="translate(412.684,781.579)"><path
             d="m 0,0 0,4.872 -3.277,0 0,-4.872 -1.917,0 0,10.779 1.917,0 0,-4.59 3.277,0 0,4.59 1.918,0 L 1.918,0 0,0 z"
             style="fill:#0d1348;fill-opacity:1;fill-rule:nonzero;stroke:none"
             id="path3400"
             inkscape:connector-curvature="0" /></g><g
           id="g3402"
           transform="translate(420.5504,789.303)"><path
             d="m 0,0 c -0.111,0.397 -0.201,0.83 -0.272,1.3 l -0.03,0 C -0.373,0.83 -0.468,0.397 -0.589,0 l -1.117,-3.791 2.778,0 L 0,0 z m 2.144,-7.724 -0.8,2.773 -3.352,0 -0.831,-2.773 -1.721,0 3.443,10.779 1.812,0 3.427,-10.779 -1.978,0 z"
             style="fill:#0d1348;fill-opacity:1;fill-rule:nonzero;stroke:none"
             id="path3404"
             inkscape:connector-curvature="0" /></g><g
           id="g3406"
           transform="translate(430.8938,789.1462)"><path
             d="M 0,0 C 0,0.752 -0.151,1.311 -0.453,1.677 -0.755,2.042 -1.259,2.225 -1.963,2.225 -2.164,2.225 -2.346,2.206 -2.507,2.17 -2.668,2.133 -2.804,2.089 -2.914,2.037 l 0,-4.23 c 0.06,-0.021 0.158,-0.04 0.294,-0.055 0.136,-0.016 0.274,-0.024 0.415,-0.024 0.745,0 1.299,0.199 1.661,0.596 C -0.181,-1.28 0,-0.721 0,0 m 0.06,-7.567 -2.944,4.888 -0.03,0 0,-4.888 -1.888,0 0,10.325 c 0.322,0.177 0.725,0.323 1.208,0.438 0.483,0.115 1.027,0.173 1.631,0.173 1.299,0 2.262,-0.293 2.892,-0.878 C 1.557,1.906 1.872,1.107 1.872,0.094 1.872,-0.313 1.804,-0.687 1.668,-1.026 1.533,-1.366 1.344,-1.658 1.102,-1.903 0.861,-2.149 0.568,-2.345 0.226,-2.491 -0.116,-2.637 -0.493,-2.726 -0.906,-2.757 l 0,-0.032 3.095,-4.778 -2.129,0 z"
             style="fill:#0d1348;fill-opacity:1;fill-rule:nonzero;stroke:none"
             id="path3408"
             inkscape:connector-curvature="0" /></g><g
           id="g3410"
           transform="translate(434.7742,781.579)"><path
             d="m 0,0 0,5.437 0,5.342 1.933,0 0,-5.342 L 1.933,0 0,0 z"
             style="fill:#0d1348;fill-opacity:1;fill-rule:nonzero;stroke:none"
             id="path3412"
             inkscape:connector-curvature="0" /></g><g
           id="g3414"
           transform="translate(442.2635,791.0263)"><path
             d="m 0,0 0,-9.447 -1.918,0 0,9.447 -1.933,0 0,1.332 5.799,0 L 1.948,0 0,0 z"
             style="fill:#0d1348;fill-opacity:1;fill-rule:nonzero;stroke:none"
             id="path3416"
             inkscape:connector-curvature="0" /></g><g
           id="g3418"
           transform="translate(449.6468,786.2321)"><path
             d="m 0,0 0,-4.653 -1.918,0 0,4.653 -2.793,6.126 2.039,0 1.781,-4.465 0.03,0 1.857,4.465 1.827,0 L 0,0 z"
             style="fill:#0d1348;fill-opacity:1;fill-rule:nonzero;stroke:none"
             id="path3420"
             inkscape:connector-curvature="0" /></g><g
           id="g3422"
           transform="translate(463.84,782.0333)"><path
             d="m 0,0 c -0.503,-0.407 -1.223,-0.611 -2.159,-0.611 -0.664,0 -1.246,0.149 -1.744,0.447 -0.498,0.297 -0.913,0.699 -1.246,1.206 -0.332,0.506 -0.581,1.094 -0.747,1.763 -0.166,0.668 -0.249,1.378 -0.249,2.13 0,0.731 0.085,1.431 0.257,2.1 0.171,0.668 0.422,1.258 0.754,1.77 0.333,0.512 0.748,0.919 1.246,1.222 0.498,0.303 1.08,0.454 1.744,0.454 0.483,0 0.898,-0.054 1.246,-0.164 C -0.551,10.207 -0.251,10.058 0,9.87 L -0.422,8.68 C -0.573,8.774 -0.757,8.86 -0.973,8.938 -1.19,9.016 -1.454,9.056 -1.766,9.056 -2.209,9.056 -2.585,8.938 -2.891,8.703 -3.199,8.468 -3.445,8.16 -3.631,7.779 -3.818,7.397 -3.951,6.959 -4.031,6.463 -4.112,5.966 -4.152,5.462 -4.152,4.951 c 0,-0.523 0.045,-1.026 0.136,-1.512 0.09,-0.486 0.231,-0.917 0.423,-1.293 0.19,-0.376 0.438,-0.676 0.739,-0.901 0.302,-0.224 0.665,-0.336 1.088,-0.336 0.301,0 0.551,0.034 0.747,0.102 0.197,0.067 0.385,0.159 0.566,0.274 L 0,0 z"
             style="fill:#0d1348;fill-opacity:1;fill-rule:nonzero;stroke:none"
             id="path3424"
             inkscape:connector-curvature="0" /></g><g
           id="g3426"
           transform="translate(470.5745,787.0311)"><path
             d="m 0,0 c 0,0.501 -0.028,1.003 -0.083,1.504 -0.055,0.502 -0.153,0.948 -0.295,1.34 -0.141,0.391 -0.337,0.71 -0.589,0.955 -0.251,0.246 -0.578,0.369 -0.981,0.369 -0.403,0 -0.73,-0.123 -0.982,-0.369 C -3.181,3.554 -3.38,3.235 -3.526,2.844 -3.672,2.452 -3.772,2.006 -3.828,1.504 -3.883,1.003 -3.911,0.501 -3.911,0 c 0,-0.501 0.025,-1 0.075,-1.496 0.051,-0.496 0.147,-0.94 0.287,-1.332 0.142,-0.392 0.341,-0.707 0.597,-0.948 0.257,-0.24 0.592,-0.36 1.004,-0.36 0.413,0 0.745,0.12 0.997,0.36 0.252,0.241 0.447,0.556 0.589,0.948 0.14,0.392 0.236,0.836 0.286,1.332 C -0.025,-1 0,-0.501 0,0 M 1.948,-0.063 C 1.948,-0.836 1.875,-1.559 1.729,-2.232 1.583,-2.906 1.354,-3.494 1.042,-3.995 0.73,-4.496 0.327,-4.891 -0.166,-5.178 c -0.493,-0.287 -1.087,-0.431 -1.782,-0.431 -0.694,0 -1.291,0.144 -1.789,0.431 -0.499,0.287 -0.904,0.682 -1.216,1.183 -0.312,0.501 -0.541,1.089 -0.687,1.763 -0.145,0.673 -0.218,1.396 -0.218,2.169 0,0.763 0.073,1.481 0.218,2.155 0.146,0.673 0.375,1.261 0.687,1.762 0.312,0.502 0.717,0.898 1.216,1.191 0.498,0.292 1.095,0.439 1.789,0.439 0.695,0 1.289,-0.147 1.782,-0.439 C 0.327,4.752 0.73,4.356 1.042,3.854 1.354,3.353 1.583,2.765 1.729,2.092 1.875,1.418 1.948,0.7 1.948,-0.063"
             style="fill:#0d1348;fill-opacity:1;fill-rule:nonzero;stroke:none"
             id="path3428"
             inkscape:connector-curvature="0" /></g><g
           id="g3430"
           transform="translate(482.7293,781.579)"><path
             d="m 0,0 c 0,0.042 -0.018,0.248 -0.053,0.619 -0.035,0.37 -0.078,0.82 -0.128,1.347 -0.05,0.528 -0.103,1.094 -0.158,1.7 -0.056,0.606 -0.109,1.165 -0.159,1.676 -0.05,0.512 -0.106,1.108 -0.166,1.786 -0.031,0.335 -0.045,0.632 -0.045,0.894 l 0,0.407 -0.031,0 C -0.84,7.906 -0.941,7.473 -1.041,7.128 -1.041,7.118 -1.075,6.993 -1.14,6.753 -1.206,6.512 -1.296,6.186 -1.412,5.773 -1.528,5.361 -1.651,4.914 -1.782,4.434 -1.913,3.953 -2.049,3.462 -2.189,2.961 -2.331,2.46 -2.459,1.997 -2.575,1.574 -2.69,1.152 -2.788,0.796 -2.869,0.509 -2.949,0.222 -3,0.052 -3.02,0 l -1.087,0 c -0.02,0.052 -0.081,0.264 -0.182,0.634 -0.101,0.371 -0.225,0.823 -0.372,1.356 -0.147,0.532 -0.303,1.099 -0.47,1.7 -0.167,0.6 -0.321,1.156 -0.463,1.668 -0.142,0.512 -0.303,1.107 -0.485,1.786 -0.091,0.334 -0.193,0.762 -0.304,1.285 l -0.03,0 0,-0.392 C -6.413,7.776 -6.429,7.478 -6.46,7.144 -6.52,6.465 -6.575,5.87 -6.626,5.358 -6.677,4.846 -6.73,4.29 -6.786,3.69 -6.841,3.089 -6.895,2.522 -6.945,1.99 -6.996,1.457 -7.038,1.005 -7.073,0.634 -7.109,0.264 -7.127,0.052 -7.127,0 l -1.6,0 1.162,10.779 1.933,0 1.857,-6.909 c 0.091,-0.345 0.181,-0.747 0.272,-1.207 l 0.03,0 c 0.081,0.46 0.171,0.862 0.272,1.207 l 1.918,6.909 1.932,0 L 1.812,0 0,0 z"
             style="fill:#0d1348;fill-opacity:1;fill-rule:nonzero;stroke:none"
             id="path3432"
             inkscape:connector-curvature="0" /></g><g
           id="g3434"
           transform="translate(494.7936,781.579)"><path
             d="m 0,0 c 0,0.042 -0.017,0.248 -0.052,0.619 -0.036,0.37 -0.079,0.82 -0.129,1.347 -0.05,0.528 -0.103,1.094 -0.158,1.7 -0.056,0.606 -0.109,1.165 -0.159,1.676 -0.05,0.512 -0.105,1.108 -0.166,1.786 -0.03,0.335 -0.045,0.632 -0.045,0.894 l 0,0.407 -0.031,0 C -0.84,7.906 -0.941,7.473 -1.041,7.128 -1.041,7.118 -1.075,6.993 -1.139,6.753 -1.206,6.512 -1.296,6.186 -1.411,5.773 -1.527,5.361 -1.651,4.914 -1.781,4.434 -1.912,3.953 -2.048,3.462 -2.189,2.961 -2.33,2.46 -2.458,1.997 -2.574,1.574 -2.69,1.152 -2.788,0.796 -2.869,0.509 -2.949,0.222 -3,0.052 -3.02,0 l -1.087,0 c -0.02,0.052 -0.081,0.264 -0.182,0.634 -0.101,0.371 -0.225,0.823 -0.372,1.356 -0.147,0.532 -0.303,1.099 -0.47,1.7 -0.167,0.6 -0.321,1.156 -0.463,1.668 -0.142,0.512 -0.303,1.107 -0.485,1.786 -0.091,0.334 -0.193,0.762 -0.304,1.285 l -0.03,0 0,-0.392 C -6.413,7.776 -6.428,7.478 -6.459,7.144 -6.52,6.465 -6.575,5.87 -6.626,5.358 -6.677,4.846 -6.73,4.29 -6.785,3.69 -6.841,3.089 -6.894,2.522 -6.945,1.99 -6.996,1.457 -7.038,1.005 -7.073,0.634 -7.109,0.264 -7.127,0.052 -7.127,0 l -1.6,0 1.163,10.779 1.932,0 1.857,-6.909 c 0.091,-0.345 0.182,-0.747 0.273,-1.207 l 0.029,0 c 0.081,0.46 0.172,0.862 0.272,1.207 l 1.918,6.909 1.933,0 L 1.812,0 0,0 z"
             style="fill:#0d1348;fill-opacity:1;fill-rule:nonzero;stroke:none"
             id="path3436"
             inkscape:connector-curvature="0" /></g><g
           id="g3438"
           transform="translate(498.5385,781.579)"><path
             d="m 0,0 0,5.437 0,5.342 1.932,0 0,-5.342 L 1.932,0 0,0 z"
             style="fill:#0d1348;fill-opacity:1;fill-rule:nonzero;stroke:none"
             id="path3440"
             inkscape:connector-curvature="0" /></g><g
           id="g3442"
           transform="translate(508.1568,784.7126)"><path
             d="m 0,0 c 0,-0.481 -0.083,-0.922 -0.249,-1.324 -0.166,-0.402 -0.395,-0.75 -0.687,-1.042 -0.292,-0.292 -0.642,-0.519 -1.05,-0.681 -0.407,-0.162 -0.853,-0.243 -1.336,-0.243 -0.624,0 -1.137,0.055 -1.54,0.164 -0.403,0.11 -0.745,0.259 -1.027,0.447 l 0.469,1.394 c 0.18,-0.125 0.417,-0.24 0.709,-0.345 0.292,-0.104 0.634,-0.156 1.027,-0.156 0.513,0 0.919,0.151 1.215,0.454 0.297,0.303 0.446,0.705 0.446,1.207 0,0.407 -0.124,0.749 -0.37,1.026 -0.247,0.276 -0.662,0.54 -1.246,0.791 -0.423,0.188 -0.773,0.397 -1.05,0.627 -0.276,0.229 -0.495,0.472 -0.656,0.728 -0.161,0.256 -0.274,0.52 -0.34,0.791 -0.065,0.272 -0.098,0.538 -0.098,0.799 0,0.428 0.073,0.833 0.219,1.214 0.146,0.382 0.352,0.719 0.619,1.011 0.267,0.292 0.591,0.522 0.974,0.689 0.382,0.167 0.815,0.251 1.299,0.251 0.523,0 0.976,-0.057 1.358,-0.17 0.383,-0.114 0.69,-0.259 0.921,-0.434 L -0.815,5.985 C -0.997,6.1 -1.226,6.209 -1.502,6.314 -1.779,6.418 -2.084,6.47 -2.416,6.47 -2.899,6.47 -3.269,6.329 -3.526,6.045 -3.783,5.762 -3.911,5.379 -3.911,4.896 -3.911,4.424 -3.762,4.059 -3.465,3.802 -3.169,3.545 -2.793,3.317 -2.34,3.118 -1.827,2.898 -1.417,2.661 -1.11,2.405 -0.803,2.149 -0.566,1.885 -0.4,1.614 -0.234,1.342 -0.126,1.07 -0.076,0.799 -0.025,0.527 0,0.261 0,0"
             style="fill:#0d1348;fill-opacity:1;fill-rule:nonzero;stroke:none"
             id="path3444"
             inkscape:connector-curvature="0" /></g><g
           id="g3446"
           transform="translate(515.2989,784.7126)"><path
             d="m 0,0 c 0,-0.481 -0.083,-0.922 -0.249,-1.324 -0.166,-0.402 -0.395,-0.75 -0.687,-1.042 -0.292,-0.292 -0.642,-0.519 -1.049,-0.681 -0.408,-0.162 -0.854,-0.243 -1.337,-0.243 -0.624,0 -1.137,0.055 -1.54,0.164 -0.403,0.11 -0.745,0.259 -1.027,0.447 l 0.469,1.394 c 0.18,-0.125 0.417,-0.24 0.709,-0.345 0.292,-0.104 0.634,-0.156 1.027,-0.156 0.513,0 0.919,0.151 1.215,0.454 0.297,0.303 0.446,0.705 0.446,1.207 0,0.407 -0.124,0.749 -0.37,1.026 -0.247,0.276 -0.662,0.54 -1.246,0.791 -0.423,0.188 -0.773,0.397 -1.05,0.627 -0.276,0.229 -0.495,0.472 -0.656,0.728 -0.161,0.256 -0.274,0.52 -0.34,0.791 -0.065,0.272 -0.098,0.538 -0.098,0.799 0,0.428 0.073,0.833 0.219,1.214 0.146,0.382 0.352,0.719 0.619,1.011 0.267,0.292 0.591,0.522 0.974,0.689 0.382,0.167 0.815,0.251 1.299,0.251 0.523,0 0.976,-0.057 1.358,-0.17 0.383,-0.114 0.69,-0.259 0.921,-0.434 L -0.815,5.985 C -0.997,6.1 -1.226,6.209 -1.502,6.314 -1.779,6.418 -2.084,6.47 -2.416,6.47 -2.899,6.47 -3.269,6.329 -3.526,6.045 -3.783,5.762 -3.911,5.379 -3.911,4.896 -3.911,4.424 -3.762,4.059 -3.465,3.802 -3.169,3.545 -2.793,3.317 -2.34,3.118 -1.827,2.898 -1.417,2.661 -1.11,2.405 -0.803,2.149 -0.566,1.885 -0.4,1.614 -0.234,1.342 -0.126,1.07 -0.076,0.799 -0.025,0.527 0,0.261 0,0"
             style="fill:#0d1348;fill-opacity:1;fill-rule:nonzero;stroke:none"
             id="path3448"
             inkscape:connector-curvature="0" /></g><g
           id="g3450"
           transform="translate(517.2471,781.579)"><path
             d="m 0,0 0,5.437 0,5.342 1.932,0 0,-5.342 L 1.932,0 0,0 z"
             style="fill:#0d1348;fill-opacity:1;fill-rule:nonzero;stroke:none"
             id="path3452"
             inkscape:connector-curvature="0" /></g><g
           id="g3454"
           transform="translate(527.0164,787.0311)"><path
             d="m 0,0 c 0,0.501 -0.028,1.003 -0.083,1.504 -0.056,0.502 -0.153,0.948 -0.295,1.34 -0.14,0.391 -0.337,0.71 -0.588,0.955 -0.252,0.246 -0.579,0.369 -0.982,0.369 -0.403,0 -0.729,-0.123 -0.981,-0.369 C -3.181,3.554 -3.38,3.235 -3.526,2.844 -3.672,2.452 -3.772,2.006 -3.828,1.504 -3.883,1.003 -3.911,0.501 -3.911,0 c 0,-0.501 0.025,-1 0.076,-1.496 0.05,-0.496 0.146,-0.94 0.287,-1.332 0.141,-0.392 0.34,-0.707 0.596,-0.948 0.256,-0.24 0.591,-0.36 1.004,-0.36 0.413,0 0.745,0.12 0.997,0.36 0.252,0.241 0.448,0.556 0.589,0.948 0.141,0.392 0.236,0.836 0.286,1.332 C -0.025,-1 0,-0.501 0,0 M 1.948,-0.063 C 1.948,-0.836 1.874,-1.559 1.729,-2.232 1.583,-2.906 1.354,-3.494 1.042,-3.995 0.73,-4.496 0.327,-4.891 -0.166,-5.178 c -0.493,-0.287 -1.087,-0.431 -1.782,-0.431 -0.694,0 -1.291,0.144 -1.789,0.431 -0.498,0.287 -0.904,0.682 -1.216,1.183 -0.312,0.501 -0.541,1.089 -0.686,1.763 -0.147,0.673 -0.22,1.396 -0.22,2.169 0,0.763 0.073,1.481 0.22,2.155 0.145,0.673 0.374,1.261 0.686,1.762 0.312,0.502 0.718,0.898 1.216,1.191 0.498,0.292 1.095,0.439 1.789,0.439 0.695,0 1.289,-0.147 1.782,-0.439 C 0.327,4.752 0.73,4.356 1.042,3.854 1.354,3.353 1.583,2.765 1.729,2.092 1.874,1.418 1.948,0.7 1.948,-0.063"
             style="fill:#0d1348;fill-opacity:1;fill-rule:nonzero;stroke:none"
             id="path3456"
             inkscape:connector-curvature="0" /></g><g
           id="g3458"
           transform="translate(537.0388,781.579)"><path
             d="M 0,0 -3.951,6.956 C -4.062,7.154 -4.165,7.35 -4.261,7.544 -4.357,7.737 -4.428,7.886 -4.473,7.99 -4.519,8.094 -4.546,8.152 -4.557,8.163 l -0.029,0 c 0.04,-0.512 0.06,-0.93 0.06,-1.254 l 0,-6.909 -1.601,0 0,10.779 1.812,0 L -0.6,4.23 c 0.171,-0.303 0.357,-0.668 0.558,-1.096 l 0.03,0 c -0.03,0.448 -0.045,0.83 -0.045,1.143 l 0,6.502 1.601,0 L 1.544,0 0,0 z"
             style="fill:#0d1348;fill-opacity:1;fill-rule:nonzero;stroke:none"
             id="path3460"
             inkscape:connector-curvature="0" /></g><g
           id="g3462"
           transform="translate(400.8728,777.0201)"><path
             d="m 0,0 0,-3.288 2.601,0 0,-0.832 -2.601,0 0,-4.434 -1.179,0 0,9.386 4.075,0 L 2.896,0 0,0 z"
             style="fill:#0d1348;fill-opacity:1;fill-rule:nonzero;stroke:none"
             id="path3464"
             inkscape:connector-curvature="0" /></g><g
           id="g3466"
           transform="translate(410.0856,773.2003)"><path
             d="M 0,0 C 0,0.473 -0.028,0.945 -0.083,1.419 -0.138,1.892 -0.24,2.314 -0.388,2.688 -0.537,3.06 -0.738,3.365 -0.993,3.601 -1.247,3.838 -1.574,3.956 -1.973,3.956 -2.372,3.956 -2.701,3.838 -2.96,3.601 -3.219,3.365 -3.422,3.06 -3.571,2.688 -3.72,2.314 -3.821,1.892 -3.877,1.419 -3.932,0.945 -3.959,0.473 -3.959,0 c 0,-0.473 0.025,-0.944 0.076,-1.412 0.051,-0.468 0.149,-0.892 0.293,-1.269 0.144,-0.377 0.346,-0.682 0.604,-0.914 0.259,-0.232 0.597,-0.348 1.013,-0.348 0.416,0 0.751,0.116 1.005,0.348 0.255,0.232 0.455,0.537 0.599,0.914 0.144,0.377 0.242,0.801 0.293,1.269 C -0.025,-0.944 0,-0.473 0,0 m 1.205,-0.041 c 0,-0.673 -0.058,-1.303 -0.173,-1.89 -0.116,-0.586 -0.301,-1.098 -0.558,-1.534 -0.256,-0.437 -0.585,-0.78 -0.986,-1.03 -0.402,-0.25 -0.889,-0.375 -1.461,-0.375 -0.572,0 -1.062,0.125 -1.467,0.375 -0.406,0.25 -0.737,0.593 -0.994,1.03 -0.255,0.436 -0.442,0.948 -0.557,1.534 -0.115,0.587 -0.173,1.217 -0.173,1.89 0,0.664 0.058,1.289 0.173,1.875 0.115,0.588 0.302,1.099 0.557,1.536 0.257,0.436 0.588,0.782 0.994,1.036 0.405,0.255 0.895,0.382 1.467,0.382 0.572,0 1.059,-0.127 1.461,-0.382 C -0.111,4.152 0.218,3.806 0.474,3.37 0.731,2.933 0.916,2.422 1.032,1.834 1.147,1.248 1.205,0.623 1.205,-0.041"
             style="fill:#0d1348;fill-opacity:1;fill-rule:nonzero;stroke:none"
             id="path3468"
             inkscape:connector-curvature="0" /></g><g
           id="g3470"
           transform="translate(417.1332,775.144)"><path
             d="m 0,0 c 0,0.716 -0.152,1.245 -0.455,1.585 -0.303,0.339 -0.78,0.509 -1.429,0.509 -0.435,0 -0.768,-0.068 -0.999,-0.204 l 0,-3.916 c 0.068,-0.018 0.173,-0.037 0.314,-0.055 0.141,-0.018 0.288,-0.027 0.442,-0.027 0.726,0 1.262,0.182 1.608,0.544 C -0.173,-1.201 0,-0.68 0,0 m 0.038,-6.678 -2.896,4.38 -0.025,0 0,-4.38 -1.166,0 0,9.018 c 0.23,0.136 0.534,0.254 0.91,0.354 0.376,0.101 0.803,0.15 1.281,0.15 1.008,0 1.764,-0.243 2.268,-0.729 C 0.914,1.628 1.166,0.944 1.166,0.062 1.166,-0.339 1.102,-0.696 0.974,-1.01 0.846,-1.323 0.664,-1.592 0.429,-1.815 0.194,-2.037 -0.087,-2.208 -0.417,-2.326 -0.746,-2.444 -1.111,-2.508 -1.512,-2.517 l 0,-0.027 2.883,-4.134 -1.333,0 z"
             style="fill:#0d1348;fill-opacity:1;fill-rule:nonzero;stroke:none"
             id="path3472"
             inkscape:connector-curvature="0" /></g><g
           id="g3474"
           transform="translate(423.7189,768.4664)"><path
             d="m 0,0 0,9.385 4.088,0 0,-0.831 -2.909,0 0,-3.288 2.614,0 0,-0.832 -2.614,0 0,-3.602 2.909,0 L 4.088,0 0,0 z"
             style="fill:#0d1348;fill-opacity:1;fill-rule:nonzero;stroke:none"
             id="path3476"
             inkscape:connector-curvature="0" /></g><g
           id="g3478"
           transform="translate(434.7644,768.4664)"><path
             d="m 0,0 -3.755,6.849 c -0.162,0.29 -0.35,0.668 -0.564,1.131 l -0.025,0 c 0,-0.018 0.002,-0.074 0.006,-0.17 0.005,-0.095 0.011,-0.236 0.019,-0.423 0.009,-0.186 0.013,-0.375 0.013,-0.566 l 0,-6.821 -0.986,0 0,9.385 1.242,0 3.601,-6.589 c 0.163,-0.29 0.329,-0.622 0.5,-0.995 l 0.026,0 C 0.051,2.201 0.038,2.547 0.038,2.838 l 0,6.547 0.987,0 L 1.025,0 0,0 z"
             style="fill:#0d1348;fill-opacity:1;fill-rule:nonzero;stroke:none"
             id="path3480"
             inkscape:connector-curvature="0" /></g><g
           id="g3482"
           transform="translate(443.4901,768.8484)"><path
             d="m 0,0 c -0.274,-0.164 -0.575,-0.291 -0.903,-0.382 -0.329,-0.091 -0.771,-0.136 -1.327,-0.136 -0.512,0 -0.993,0.099 -1.441,0.3 -0.448,0.199 -0.842,0.502 -1.179,0.907 -0.337,0.404 -0.602,0.914 -0.794,1.527 -0.193,0.615 -0.288,1.335 -0.288,2.163 0,0.782 0.096,1.469 0.291,2.06 0.194,0.591 0.459,1.086 0.794,1.487 0.336,0.4 0.728,0.703 1.176,0.907 0.448,0.205 0.924,0.307 1.429,0.307 0.487,0 0.899,-0.046 1.236,-0.137 0.338,-0.091 0.613,-0.209 0.827,-0.354 L -0.525,7.872 c -0.146,0.099 -0.349,0.188 -0.609,0.265 -0.26,0.078 -0.587,0.116 -0.98,0.116 -0.812,0 -1.45,-0.322 -1.916,-0.968 -0.465,-0.646 -0.698,-1.651 -0.698,-3.015 0,-0.637 0.064,-1.198 0.193,-1.685 0.128,-0.486 0.304,-0.896 0.527,-1.228 0.223,-0.332 0.484,-0.582 0.784,-0.75 0.3,-0.169 0.626,-0.253 0.978,-0.253 0.3,0 0.535,0.023 0.707,0.069 0.171,0.045 0.304,0.095 0.399,0.15 l 0,3.52 -1.5,0 0,0.791 2.64,0 L 0,0 z"
             style="fill:#0d1348;fill-opacity:1;fill-rule:nonzero;stroke:none"
             id="path3484"
             inkscape:connector-curvature="0" /></g><g
           id="g3486"
           transform="translate(445.5151,768.4664)"><path
             d="m 0,0 0,9.385 1.179,0 0,-8.553 2.652,0 L 3.831,0 0,0 z"
             style="fill:#0d1348;fill-opacity:1;fill-rule:nonzero;stroke:none"
             id="path3488"
             inkscape:connector-curvature="0" /></g><g
           id="g3490"
           transform="translate(453.8305,775.5872)"><path
             d="m 0,0 c -0.111,0.373 -0.196,0.751 -0.256,1.133 l -0.026,0 C -0.35,0.751 -0.44,0.373 -0.551,0 l -1.05,-3.56 2.626,0 L 0,0 z m 2.05,-7.121 -0.833,2.81 -3.024,0 -0.858,-2.81 -1.076,0 2.985,9.386 1.05,0 2.974,-9.386 -1.218,0 z"
             style="fill:#0d1348;fill-opacity:1;fill-rule:nonzero;stroke:none"
             id="path3492"
             inkscape:connector-curvature="0" /></g><g
           id="g3494"
           transform="translate(463.7099,768.4664)"><path
             d="m 0,0 -3.755,6.849 c -0.162,0.29 -0.35,0.668 -0.563,1.131 l -0.026,0 c 0,-0.018 0.002,-0.074 0.007,-0.17 0.004,-0.095 0.01,-0.236 0.019,-0.423 0.008,-0.186 0.013,-0.375 0.013,-0.566 l 0,-6.821 -0.988,0 0,9.385 1.243,0 3.601,-6.589 c 0.163,-0.29 0.33,-0.622 0.5,-0.995 l 0.026,0 C 0.051,2.201 0.038,2.547 0.038,2.838 l 0,6.547 0.987,0 L 1.025,0 0,0 z"
             style="fill:#0d1348;fill-opacity:1;fill-rule:nonzero;stroke:none"
             id="path3496"
             inkscape:connector-curvature="0" /></g><g
           id="g3498"
           transform="translate(471.5385,773.261)"><path
             d="m 0,0 c 0,1.298 -0.201,2.275 -0.604,2.929 -0.403,0.653 -1.029,0.98 -1.878,0.98 -0.231,0 -0.433,-0.014 -0.604,-0.041 -0.172,-0.027 -0.335,-0.077 -0.489,-0.15 l 0,-7.585 c 0.275,-0.118 0.644,-0.177 1.106,-0.177 0.892,0 1.526,0.342 1.904,1.028 C -0.188,-2.331 0,-1.325 0,0 m 1.205,-0.006 c 0,-0.728 -0.07,-1.392 -0.212,-1.992 C 0.853,-2.599 0.635,-3.117 0.34,-3.554 0.045,-3.99 -0.331,-4.329 -0.787,-4.57 c -0.458,-0.24 -0.998,-0.361 -1.622,-0.361 -0.512,0 -0.972,0.048 -1.377,0.143 -0.406,0.096 -0.724,0.216 -0.955,0.362 l 0,8.635 c 0.256,0.155 0.579,0.28 0.968,0.375 0.388,0.096 0.826,0.143 1.313,0.143 0.606,0 1.138,-0.111 1.595,-0.334 C -0.408,4.17 -0.025,3.854 0.282,3.445 0.59,3.036 0.821,2.54 0.974,1.958 1.128,1.376 1.205,0.721 1.205,-0.006"
             style="fill:#0d1348;fill-opacity:1;fill-rule:nonzero;stroke:none"
             id="path3500"
             inkscape:connector-curvature="0" /></g><g
           id="g3502"
           transform="translate(481.1355,775.5872)"><path
             d="m 0,0 c -0.111,0.373 -0.196,0.751 -0.256,1.133 l -0.026,0 C -0.35,0.751 -0.44,0.373 -0.551,0 l -1.05,-3.56 2.626,0 L 0,0 z m 2.051,-7.121 -0.833,2.81 -3.024,0 -0.859,-2.81 -1.076,0 2.986,9.386 1.05,0 2.973,-9.386 -1.217,0 z"
             style="fill:#0d1348;fill-opacity:1;fill-rule:nonzero;stroke:none"
             id="path3504"
             inkscape:connector-curvature="0" /></g><g
           id="g3506"
           transform="translate(491.0154,768.4664)"><path
             d="m 0,0 -3.755,6.849 c -0.162,0.29 -0.35,0.668 -0.563,1.131 l -0.026,0 c 0,-0.018 0.002,-0.074 0.007,-0.17 0.004,-0.095 0.01,-0.236 0.019,-0.423 0.008,-0.186 0.013,-0.375 0.013,-0.566 l 0,-6.821 -0.988,0 0,9.385 1.243,0 3.602,-6.589 c 0.162,-0.29 0.329,-0.622 0.499,-0.995 l 0.025,0 C 0.051,2.201 0.038,2.547 0.038,2.838 l 0,6.547 0.987,0 L 1.025,0 0,0 z"
             style="fill:#0d1348;fill-opacity:1;fill-rule:nonzero;stroke:none"
             id="path3508"
             inkscape:connector-curvature="0" /></g><g
           id="g3510"
           transform="translate(498.844,773.261)"><path
             d="m 0,0 c 0,1.298 -0.201,2.275 -0.604,2.929 -0.404,0.653 -1.029,0.98 -1.877,0.98 -0.233,0 -0.434,-0.014 -0.606,-0.041 -0.171,-0.027 -0.334,-0.077 -0.488,-0.15 l 0,-7.585 c 0.274,-0.118 0.643,-0.177 1.106,-0.177 0.892,0 1.526,0.342 1.904,1.028 C -0.188,-2.331 0,-1.325 0,0 M 1.205,-0.006 C 1.205,-0.734 1.134,-1.398 0.993,-1.998 0.852,-2.599 0.634,-3.117 0.339,-3.554 0.045,-3.99 -0.331,-4.329 -0.788,-4.57 c -0.457,-0.24 -0.998,-0.361 -1.62,-0.361 -0.513,0 -0.973,0.048 -1.379,0.143 -0.405,0.096 -0.723,0.216 -0.954,0.362 l 0,8.635 c 0.256,0.155 0.579,0.28 0.967,0.375 0.389,0.096 0.827,0.143 1.313,0.143 0.608,0 1.139,-0.111 1.596,-0.334 C -0.408,4.17 -0.026,3.854 0.282,3.445 0.59,3.036 0.82,2.54 0.974,1.958 1.128,1.376 1.205,0.721 1.205,-0.006"
             style="fill:#0d1348;fill-opacity:1;fill-rule:nonzero;stroke:none"
             id="path3512"
             inkscape:connector-curvature="0" /></g><g
           id="g3514"
           transform="translate(512.4257,768.4664)"><path
             d="M 0,0 -1.037,0 -2.524,6.548 C -2.593,6.83 -2.656,7.18 -2.716,7.599 l -0.025,0 C -2.785,7.189 -2.84,6.839 -2.908,6.548 L -4.407,0 l -1.038,0 -2.063,9.385 1.217,0 1.268,-6.779 C -4.971,2.333 -4.92,1.973 -4.869,1.528 l 0.026,0 c 0.06,0.445 0.124,0.805 0.193,1.078 l 1.524,6.779 0.897,0 1.512,-6.779 c 0.034,-0.164 0.066,-0.333 0.096,-0.505 0.03,-0.173 0.051,-0.307 0.064,-0.403 0.013,-0.095 0.019,-0.152 0.019,-0.17 l 0.026,0 c 0,0.018 0.007,0.075 0.02,0.17 0.011,0.096 0.029,0.23 0.051,0.403 0.02,0.172 0.048,0.341 0.083,0.505 l 1.332,6.779 1.09,0 L 0,0 z"
             style="fill:#0d1348;fill-opacity:1;fill-rule:nonzero;stroke:none"
             id="path3516"
             inkscape:connector-curvature="0" /></g><g
           id="g3518"
           transform="translate(518.5891,775.5872)"><path
             d="m 0,0 c -0.111,0.373 -0.197,0.751 -0.257,1.133 l -0.025,0 C -0.35,0.751 -0.441,0.373 -0.551,0 l -1.051,-3.56 2.627,0 L 0,0 z m 2.05,-7.121 -0.833,2.81 -3.024,0 -0.858,-2.81 -1.077,0 2.986,9.386 1.051,0 2.972,-9.386 -1.217,0 z"
             style="fill:#0d1348;fill-opacity:1;fill-rule:nonzero;stroke:none"
             id="path3520"
             inkscape:connector-curvature="0" /></g><g
           id="g3522"
           transform="translate(523.2146,768.4664)"><path
             d="m 0,0 0,9.385 1.179,0 0,-8.553 2.652,0 L 3.831,0 0,0 z"
             style="fill:#0d1348;fill-opacity:1;fill-rule:nonzero;stroke:none"
             id="path3524"
             inkscape:connector-curvature="0" /></g><g
           id="g3526"
           transform="translate(528.5324,768.4664)"><path
             d="m 0,0 0,9.385 4.088,0 0,-0.831 -2.909,0 0,-3.288 2.614,0 0,-0.832 -2.614,0 0,-3.602 2.909,0 L 4.088,0 0,0 z"
             style="fill:#0d1348;fill-opacity:1;fill-rule:nonzero;stroke:none"
             id="path3528"
             inkscape:connector-curvature="0" /></g><g
           id="g3530"
           transform="translate(538.5659,771.1127)"><path
             d="m 0,0 c 0,-0.409 -0.067,-0.784 -0.199,-1.125 -0.132,-0.341 -0.317,-0.635 -0.551,-0.88 -0.235,-0.246 -0.517,-0.437 -0.846,-0.573 -0.329,-0.137 -0.685,-0.204 -1.069,-0.204 -0.504,0 -0.915,0.047 -1.23,0.143 -0.317,0.095 -0.59,0.22 -0.821,0.375 l 0.309,0.873 c 0.172,-0.109 0.381,-0.209 0.63,-0.3 0.248,-0.091 0.553,-0.137 0.913,-0.137 0.514,0 0.919,0.159 1.215,0.477 0.296,0.319 0.444,0.746 0.444,1.283 0,0.418 -0.118,0.764 -0.354,1.037 -0.235,0.273 -0.632,0.527 -1.19,0.764 -0.368,0.154 -0.674,0.33 -0.919,0.525 -0.245,0.196 -0.437,0.403 -0.579,0.621 -0.141,0.218 -0.24,0.443 -0.295,0.675 -0.056,0.232 -0.084,0.462 -0.084,0.689 0,0.355 0.057,0.691 0.171,1.01 0.114,0.318 0.277,0.597 0.488,0.838 0.211,0.241 0.47,0.432 0.777,0.574 0.307,0.14 0.652,0.211 1.037,0.211 0.41,0 0.764,-0.048 1.063,-0.143 0.3,-0.096 0.547,-0.217 0.744,-0.362 L -0.628,5.58 c -0.154,0.1 -0.351,0.198 -0.59,0.293 -0.239,0.096 -0.508,0.144 -0.807,0.144 -0.47,0 -0.831,-0.15 -1.083,-0.45 C -3.36,5.266 -3.486,4.866 -3.486,4.366 -3.486,4.12 -3.447,3.909 -3.37,3.731 -3.292,3.554 -3.186,3.399 -3.049,3.267 -2.911,3.135 -2.755,3.02 -2.58,2.919 -2.403,2.82 -2.213,2.729 -2.007,2.647 -1.569,2.465 -1.22,2.265 -0.959,2.047 -0.698,1.828 -0.496,1.601 -0.354,1.364 -0.213,1.128 -0.119,0.894 -0.071,0.662 -0.024,0.43 0,0.209 0,0"
             style="fill:#0d1348;fill-opacity:1;fill-rule:nonzero;stroke:none"
             id="path3532"
             inkscape:connector-curvature="0" /></g></g></g></g></svg>