<?xml version="1.0" encoding="UTF-8"?><svg xmlns:dc="http://purl.org/dc/elements/1.1/" xmlns:cc="http://creativecommons.org/ns#" xmlns:rdf="http://www.w3.org/1999/02/22-rdf-syntax-ns#" xmlns:svg="http://www.w3.org/2000/svg" xmlns="http://www.w3.org/2000/svg" viewBox="0 0 515.79999 71.306664" height="71.306664" width="515.79999" xml:space="preserve" id="svg2" version="1.1"><metadata id="metadata8"><rdf:RDF><cc:Work rdf:about=""><dc:format>image/svg+xml</dc:format><dc:type rdf:resource="http://purl.org/dc/dcmitype/StillImage"/></cc:Work></rdf:RDF></metadata><defs id="defs6"><clipPath id="clipPath20" clipPathUnits="userSpaceOnUse"><path id="path18" d="m 1482,430.035 -87.75,-241.894 h 174.7 z M 1632.98,0 1599.78,90.9063 H 1364.21 L 1331.01,0 h -123.32 l 203.95,527.27 h 140.71 L 1755.51,0 Z"/></clipPath><linearGradient id="linearGradient32" spreadMethod="pad" gradientTransform="matrix(2196.75,-4.34999,-4.34999,-2196.75,1366.15,263.663)" gradientUnits="userSpaceOnUse" y2="0" x2="1" y1="0" x1="0"><stop id="stop22" offset="0" style="stop-opacity:1;stop-color:#f29624"/><stop id="stop24" offset="0.13" style="stop-opacity:1;stop-color:#f29624"/><stop id="stop26" offset="0.5" style="stop-opacity:1;stop-color:#ee652a"/><stop id="stop28" offset="0.87" style="stop-opacity:1;stop-color:#d22f3d"/><stop id="stop30" offset="1" style="stop-opacity:1;stop-color:#d22f3d"/></linearGradient><clipPath id="clipPath42" clipPathUnits="userSpaceOnUse"><path id="path40" d="M 2050.37,430.828 H 1932.59 V 285.375 h 117.78 c 45.06,0 79.06,28.457 79.06,72.727 0,44.265 -34,72.726 -79.06,72.726 z M 2118.36,0 2014.8,188.934 h -82.21 V 0 h -112.25 v 527.27 h 246.64 c 109.88,0 177.07,-71.938 177.07,-169.961 0,-93.278 -58.5,-143.079 -115.41,-156.52 L 2247.21,0 Z"/></clipPath><linearGradient id="linearGradient54" spreadMethod="pad" gradientTransform="matrix(2196.75,-4.34999,-4.34999,-2196.75,1366.16,264.779)" gradientUnits="userSpaceOnUse" y2="0" x2="1" y1="0" x1="0"><stop id="stop44" offset="0" style="stop-opacity:1;stop-color:#f29624"/><stop id="stop46" offset="0.13" style="stop-opacity:1;stop-color:#f29624"/><stop id="stop48" offset="0.5" style="stop-opacity:1;stop-color:#ee652a"/><stop id="stop50" offset="0.87" style="stop-opacity:1;stop-color:#d22f3d"/><stop id="stop52" offset="1" style="stop-opacity:1;stop-color:#d22f3d"/></linearGradient><clipPath id="clipPath64" clipPathUnits="userSpaceOnUse"><path id="path62" d="m 2323.66,0 v 527.27 h 373.12 V 430.828 H 2435.91 V 316.207 h 255.34 V 219.762 H 2435.91 V 97.2344 h 260.87 V 0 Z"/></clipPath><linearGradient id="linearGradient76" spreadMethod="pad" gradientTransform="matrix(2196.75,-4.34999,-4.34999,-2196.75,1366.16,265.901)" gradientUnits="userSpaceOnUse" y2="0" x2="1" y1="0" x1="0"><stop id="stop66" offset="0" style="stop-opacity:1;stop-color:#f29624"/><stop id="stop68" offset="0.13" style="stop-opacity:1;stop-color:#f29624"/><stop id="stop70" offset="0.5" style="stop-opacity:1;stop-color:#ee652a"/><stop id="stop72" offset="0.87" style="stop-opacity:1;stop-color:#d22f3d"/><stop id="stop74" offset="1" style="stop-opacity:1;stop-color:#d22f3d"/></linearGradient><clipPath id="clipPath86" clipPathUnits="userSpaceOnUse"><path id="path84" d="M 3148.39,0 2897.01,354.148 V 0 h -112.26 v 527.27 h 115.41 l 244.28,-341.5 v 341.5 h 112.25 V 0 Z"/></clipPath><linearGradient id="linearGradient98" spreadMethod="pad" gradientTransform="matrix(2196.75,-4.34999,-4.34999,-2196.75,1366.16,266.912)" gradientUnits="userSpaceOnUse" y2="0" x2="1" y1="0" x1="0"><stop id="stop88" offset="0" style="stop-opacity:1;stop-color:#f29624"/><stop id="stop90" offset="0.13" style="stop-opacity:1;stop-color:#f29624"/><stop id="stop92" offset="0.5" style="stop-opacity:1;stop-color:#ee652a"/><stop id="stop94" offset="0.87" style="stop-opacity:1;stop-color:#d22f3d"/><stop id="stop96" offset="1" style="stop-opacity:1;stop-color:#d22f3d"/></linearGradient><clipPath id="clipPath108" clipPathUnits="userSpaceOnUse"><path id="path106" d="m 3595.03,430.035 -87.75,-241.894 h 174.71 z M 3746.02,0 3712.82,90.9063 H 3477.24 L 3444.05,0 h -123.32 l 203.95,527.27 h 140.71 L 3868.55,0 Z"/></clipPath><linearGradient id="linearGradient120" spreadMethod="pad" gradientTransform="matrix(2196.75,-4.34999,-4.34999,-2196.75,1366.16,267.847)" gradientUnits="userSpaceOnUse" y2="0" x2="1" y1="0" x1="0"><stop id="stop110" offset="0" style="stop-opacity:1;stop-color:#f29624"/><stop id="stop112" offset="0.13" style="stop-opacity:1;stop-color:#f29624"/><stop id="stop114" offset="0.5" style="stop-opacity:1;stop-color:#ee652a"/><stop id="stop116" offset="0.87" style="stop-opacity:1;stop-color:#d22f3d"/><stop id="stop118" offset="1" style="stop-opacity:1;stop-color:#d22f3d"/></linearGradient><clipPath id="clipPath130" clipPathUnits="userSpaceOnUse"><path id="path128" d="M 148.18,0 H 0 v 527.273 h 148.18 z"/></clipPath><linearGradient id="linearGradient140" spreadMethod="pad" gradientTransform="matrix(284.136,-144.774,-144.774,-284.136,47.6881,277.089)" gradientUnits="userSpaceOnUse" y2="0" x2="1" y1="0" x1="0"><stop id="stop132" offset="0" style="stop-opacity:1;stop-color:#ffffff"/><stop id="stop134" offset="0.22" style="stop-opacity:1;stop-color:#cccfd5"/><stop id="stop136" offset="0.380127" style="stop-opacity:1;stop-color:#9da2a9"/><stop id="stop138" offset="1" style="stop-opacity:1;stop-color:#9da2a9"/></linearGradient><clipPath id="clipPath154" clipPathUnits="userSpaceOnUse"><path id="path152" d="M 685.496,0 H 537.313 v 527.273 h 148.183 z"/></clipPath><linearGradient id="linearGradient164" spreadMethod="pad" gradientTransform="matrix(284.136,-144.774,-144.774,-284.136,585.002,277.089)" gradientUnits="userSpaceOnUse" y2="0" x2="1" y1="0" x1="0"><stop id="stop156" offset="0" style="stop-opacity:1;stop-color:#ffffff"/><stop id="stop158" offset="0.22" style="stop-opacity:1;stop-color:#cccfd5"/><stop id="stop160" offset="0.38" style="stop-opacity:1;stop-color:#9da2a9"/><stop id="stop162" offset="1" style="stop-opacity:1;stop-color:#9da2a9"/></linearGradient><clipPath id="clipPath174" clipPathUnits="userSpaceOnUse"><path id="path172" d="M 416.809,290.824 V 527.273 L 269.102,1.67969 Z"/></clipPath><linearGradient id="linearGradient182" spreadMethod="pad" gradientTransform="matrix(95.8111,-23.8174,-23.8174,-95.8111,366.623,258.593)" gradientUnits="userSpaceOnUse" y2="0" x2="1" y1="0" x1="0"><stop id="stop176" offset="0" style="stop-opacity:1;stop-color:#ffffff"/><stop id="stop178" offset="0.425224" style="stop-opacity:1;stop-color:#cccfd5"/><stop id="stop180" offset="1" style="stop-opacity:1;stop-color:#cccfd5"/></linearGradient></defs><g transform="matrix(1.3333333,0,0,-1.3333333,0,71.306667)" id="g10"><g transform="scale(0.1)" id="g12"><g id="g14"><g clip-path="url(#clipPath20)" id="g16"><path id="path34" style="fill:url(#linearGradient32);fill-opacity:1;fill-rule:nonzero;stroke:none" d="m 1482,430.035 -87.75,-241.894 h 174.7 z M 1632.98,0 1599.78,90.9063 H 1364.21 L 1331.01,0 h -123.32 l 203.95,527.27 h 140.71 L 1755.51,0 h -122.53"/></g></g><g id="g36"><g clip-path="url(#clipPath42)" id="g38"><path id="path56" style="fill:url(#linearGradient54);fill-opacity:1;fill-rule:nonzero;stroke:none" d="M 2050.37,430.828 H 1932.59 V 285.375 h 117.78 c 45.06,0 79.06,28.457 79.06,72.727 0,44.265 -34,72.726 -79.06,72.726 z M 2118.36,0 2014.8,188.934 h -82.21 V 0 h -112.25 v 527.27 h 246.64 c 109.88,0 177.07,-71.938 177.07,-169.961 0,-93.278 -58.5,-143.079 -115.41,-156.52 L 2247.21,0 h -128.85"/></g></g><g id="g58"><g clip-path="url(#clipPath64)" id="g60"><path id="path78" style="fill:url(#linearGradient76);fill-opacity:1;fill-rule:nonzero;stroke:none" d="m 2323.66,0 v 527.27 h 373.12 V 430.828 H 2435.91 V 316.207 h 255.34 V 219.762 H 2435.91 V 97.2344 h 260.87 V 0 h -373.12"/></g></g><g id="g80"><g clip-path="url(#clipPath86)" id="g82"><path id="path100" style="fill:url(#linearGradient98);fill-opacity:1;fill-rule:nonzero;stroke:none" d="M 3148.39,0 2897.01,354.148 V 0 h -112.26 v 527.27 h 115.41 l 244.28,-341.5 v 341.5 h 112.25 V 0 h -108.3"/></g></g><g id="g102"><g clip-path="url(#clipPath108)" id="g104"><path id="path122" style="fill:url(#linearGradient120);fill-opacity:1;fill-rule:nonzero;stroke:none" d="m 3595.03,430.035 -87.75,-241.894 h 174.71 z M 3746.02,0 3712.82,90.9063 H 3477.24 L 3444.05,0 h -123.32 l 203.95,527.27 h 140.71 L 3868.55,0 h -122.53"/></g></g><g id="g124"><g clip-path="url(#clipPath130)" id="g126"><path id="path142" style="fill:url(#linearGradient140);fill-opacity:1;fill-rule:nonzero;stroke:none" d="M 148.18,0 H 0 V 527.273 H 148.18 V 0"/></g></g><path id="path144" style="fill:#ffffff;fill-opacity:1;fill-rule:nonzero;stroke:none" d="M 416.84,0 H 268.66 V 527.273 H 416.84 V 0"/><path id="path146" style="fill:#ffffff;fill-opacity:1;fill-rule:nonzero;stroke:none" d="M 148.18,0 H 0 L 268.656,527.273 H 416.84 L 148.18,0"/><g id="g148"><g clip-path="url(#clipPath154)" id="g150"><path id="path166" style="fill:url(#linearGradient164);fill-opacity:1;fill-rule:nonzero;stroke:none" d="M 685.496,0 H 537.313 V 527.273 H 685.496 V 0"/></g></g><g id="g168"><g clip-path="url(#clipPath174)" id="g170"><path id="path184" style="fill:url(#linearGradient182);fill-opacity:1;fill-rule:nonzero;stroke:none" d="M 416.809,290.824 V 527.273 L 269.102,1.67969 Z"/></g></g><path id="path186" style="fill:#ffffff;fill-opacity:1;fill-rule:nonzero;stroke:none" d="M 416.84,0 H 268.656 l 268.66,527.273 h 148.18 L 416.84,0"/><path id="path188" style="fill:#ffffff;fill-opacity:1;fill-rule:nonzero;stroke:none" d="M 1009.52,264.297 V 130.723 h -43.911 c -6.394,0 -12.683,0.449 -18.836,1.312 -64.949,9.137 -114.918,64.84 -114.918,132.192 0,73.73 59.883,133.503 133.754,133.503 27.262,0 52.601,-8.171 73.751,-22.156 l 59.8,117.438 c -37.44,26.039 -85.82,41.754 -138.66,41.754 -5.074,0 -10.105,-0.164 -15.09,-0.461 l -0.187,0.043 c -49.176,-3.024 -108.215,-18.91 -161.817,-76.332 -3.183,-3.411 -14.093,-16.61 -19.547,-24.2 -2.011,-2.8 -7.14,-10.48 -11.859,-17.761 -3.879,-5.989 -12.367,-20.672 -15.305,-26.164 C 730.773,378.816 537.543,0.0859375 537.543,0.0859375 h 148.18 L 746.574,119.512 l 10.797,-14.676 0.012,0.023 C 803.477,44.7422 873.684,7.21094 948.746,0.859375 951.41,0.632813 959.809,0.203125 962.477,0.15625 966.77,0.0742188 976.746,0 976.746,0 h 100.664 l 47.28,92.7891 v 171.3669 0.141 h -115.17"/></g></g></svg>