<?xml version="1.0" encoding="UTF-8" standalone="no"?>
<!-- Created with Inkscape (http://www.inkscape.org/) -->

<svg
   xmlns:dc="http://purl.org/dc/elements/1.1/"
   xmlns:cc="http://creativecommons.org/ns#"
   xmlns:rdf="http://www.w3.org/1999/02/22-rdf-syntax-ns#"
   xmlns:svg="http://www.w3.org/2000/svg"
   xmlns="http://www.w3.org/2000/svg"
   xmlns:sodipodi="http://sodipodi.sourceforge.net/DTD/sodipodi-0.dtd"
   xmlns:inkscape="http://www.inkscape.org/namespaces/inkscape"
   width="300"
   height="100"
   id="svg2"
   version="1.1"
   inkscape:version="0.48.4 r9939"
   viewBox="0 0 300 100"
   sodipodi:docname="svg-sbclogo.svg">
  <defs
     id="defs4" />
  <sodipodi:namedview
     id="base"
     pagecolor="#ffffff"
     bordercolor="#666666"
     borderopacity="1.0"
     inkscape:pageopacity="0.0"
     inkscape:pageshadow="2"
     inkscape:zoom="3.7866667"
     inkscape:cx="150"
     inkscape:cy="50"
     inkscape:document-units="px"
     inkscape:current-layer="layer1"
     showgrid="false"
     inkscape:window-width="1280"
     inkscape:window-height="962"
     inkscape:window-x="1016"
     inkscape:window-y="-8"
     inkscape:window-maximized="1" />
  <metadata
     id="metadata7">
    <rdf:RDF>
      <cc:Work
         rdf:about="">
        <dc:format>image/svg+xml</dc:format>
        <dc:type
           rdf:resource="http://purl.org/dc/dcmitype/StillImage" />
        <dc:title />
      </cc:Work>
    </rdf:RDF>
  </metadata>
  <g
     inkscape:label="Layer 1"
     inkscape:groupmode="layer"
     id="layer1"
     transform="translate(0,-952.36217)">
    <g
       transform="matrix(0.60781544,0,0,0.60781542,0.99981373,962.89257)"
       id="g3070"
       style="fill:#ffffff">
      <path
         style="fill:#ffffff;fill-rule:evenodd"
         inkscape:connector-curvature="0"
         clip-rule="evenodd"
         d="m 152.243,122.467 -0.05,-24.809 h 8.271 l 0,0 c 4.17,1.471 4.041,6.986 2.748,8.833 -0.964,1.529 -2.776,1.847 -3.164,1.847 l 0,0 h -5.521 v 1.579 l 5.388,-0.054 0,0 c 1.794,0 3.093,2.161 3.887,2.989 2.045,2.409 2.203,8.429 -3.389,9.614 l 0,0 h -8.17 l 0,0.001 m -5.827,-27.16 v 1.579 l 0,0 c 0,0.526 0.263,0.79 0.788,0.79 l 0,0 h 2.366 v 26.851 h 13.41 l 0,0 c 0.922,-0.521 2.128,-0.929 3.57,-2.785 4.265,-5.492 -0.239,-11.78 -1.993,-12.22 l 0,0 -1.577,-0.395 0,0 c 2.629,-1.125 3.298,-2.914 3.921,-4.46 0.24,-1.683 0.578,-3.472 -0.12,-5.045 -0.599,-1.366 -0.688,-1.65 -1.32,-2.282 -1.651,-1.653 -3.94,-2.079 -4.466,-2.079 l 0,0 -14.579,0.046 0,0"
         id="path3072" />
      <path
         style="fill:#ffffff;fill-rule:evenodd"
         inkscape:connector-curvature="0"
         clip-rule="evenodd"
         d="m 196.798,95.777 -0.066,2.118 3.056,0.372 0.004,26.626 h 2.428 l 0.059,-26.526 8.72,-0.05 0,0 c 2.328,0.072 5.033,4.086 2.342,9.166 -0.547,0.997 -2.108,1.525 -3.189,1.595 l 0,0 h -5.282 v 1.743 h 3.538 l 5.049,13.715 h 3.041 l -5.322,-13.701 0,0 c 4.016,-0.566 5.771,-5.029 5.455,-8.582 -0.322,-3.627 -2.79,-6.341 -5.93,-6.525 l 0,0 -13.903,0.049 0,0"
         id="path3074" />
      <path
         style="fill:#ffffff;fill-rule:evenodd"
         inkscape:connector-curvature="0"
         clip-rule="evenodd"
         d="m 288.265,96.762 c -1.238,-0.62 -1.533,-0.903 -2.672,-1.165 -8.369,-1.922 -13.868,5.379 -13.593,14.914 0.031,1.051 0.13,2.129 0.302,3.227 1.969,12.583 10.568,13.338 15.465,9.925 2.328,-1.623 3.592,-4.643 3.576,-7.395 l 0,0 -0.035,-6.337 -6.693,0.033 0.114,2.663 4.083,-0.073 0.15,3.637 0,0 c 0.1,2.454 -0.83,4.086 -2.492,5.777 -1.488,1.516 -5.678,1.429 -6.926,0.848 -3.123,-1.453 -4.074,-4.98 -4.783,-8.12 -0.848,-3.753 -0.149,-6.61 0.349,-9.564 1.146,-6.908 10.882,-12.194 13.918,-2.431 l 0,0 2.476,0.04 0,0 c 0.207,-0.466 -1.055,-2.782 -1.545,-4.035 l 0,0 -1.694,-1.944 0,0"
         id="path3076" />
      <g
         id="g3078"
         style="fill:#ffffff">
        <polyline
           style="fill:#ffffff;fill-rule:evenodd"
           clip-rule="evenodd"
           points="295.731,95.85 295.731,98.133 298.743,98.271     298.772,124.773 301.054,124.773 301.054,110.312 313.978,110.312 313.978,124.773 316.259,124.773 316.259,95.85 314.007,95.84     313.978,108.028 301.054,108.028 301.054,95.85 295.731,95.85   "
           id="polyline3080" />
      </g>
      <path
         style="fill:#ffffff;fill-rule:evenodd"
         inkscape:connector-curvature="0"
         clip-rule="evenodd"
         d="m 349.224,116.401 c 1.305,7.563 -10.393,9.309 -12.924,0 -0.938,-3.195 -1.054,-7.132 0,-12.18 1.143,-5.95 9.814,-10.234 12.924,-1.142 l 0,0 2.531,-0.058 0,0 c 0.257,-0.447 0.143,-1.277 -0.25,-2.606 -4.233,-11.638 -22.326,-4.068 -18.246,14.463 3.667,16.655 20.037,10.289 19.006,1.522 l 0,0 h -3.041 l 0,10e-4"
         id="path3082" />
      <path
         style="fill:#ffffff;fill-rule:evenodd"
         inkscape:connector-curvature="0"
         clip-rule="evenodd"
         d="m 405.184,95.998 v 1.548 l 0,0 c 0,0.516 0.253,0.773 0.76,0.773 l 0,0 h 2.281 v 26.306 h 3.041 V 99.093 l 0,0 c 0,-0.516 0.253,-0.773 0.761,-0.773 l 0,0 h 6.842 l 0,0 c 3.041,0 4.562,1.805 4.562,5.416 l 0,0 v 20.89 h 2.28 l 0,0 c 0.508,0 0.761,-0.258 0.761,-0.773 l 0,0 V 104.51 l 0,0 c 0,-4.82 -3.931,-8.511 -5.321,-8.511 l 0,0 h -15.967 l 0,-10e-4"
         id="path3084" />
      <path
         style="fill:#ffffff;fill-rule:evenodd"
         inkscape:connector-curvature="0"
         clip-rule="evenodd"
         d="m 462.301,124.673 0.083,-28.172 0,0 c 0,-0.508 -0.254,-0.762 -0.76,-0.762 l 0,0 h -5.322 v 2.283 l 0,0 c 2.026,0 3.041,0.255 3.041,0.762 l 0,0 v 25.88 l 2.958,0.009 0,0"
         id="path3086" />
      <g
         id="g3088"
         style="fill:#ffffff">
        <polyline
           style="fill:#ffffff;fill-rule:evenodd"
           clip-rule="evenodd"
           points="255.122,24.998 245.239,24.998 238.562,62.568     231.43,24.998 218.629,24.998 212.083,62.568 205.706,24.998 189.74,24.998 189.713,31.026 196.409,33.206 206.465,79.042     217.869,79.042 224.712,42.506 225.472,42.506 232.314,79.042 243.718,79.042 255.122,24.998   "
           id="polyline3090" />
      </g>
      <g
         id="g3092"
         style="fill:#ffffff">
        <polyline
           style="fill:#ffffff;fill-rule:evenodd"
           clip-rule="evenodd"
           points="260.121,25.042 260.121,31.381 266.259,33.409     266.286,79.042 277.69,79.042 277.671,25.042 260.121,25.042   "
           id="polyline3094" />
      </g>
      <path
         style="fill:#ffffff;fill-rule:evenodd"
         inkscape:connector-curvature="0"
         clip-rule="evenodd"
         d="m 286.358,24.998 -0.019,5.977 6.289,2.129 0.05,45.891 11.165,0.047 V 34.133 h 9.884 l 0,0 c 4.053,0 6.082,2.283 6.082,6.851 l 0,0 v 38.059 h 10.643 V 37.938 l 0,0 c 0,-7.226 -10.223,-12.94 -13.685,-12.94 l 0,0 h -30.409 l 0,0"
         id="path3096" />
      <path
         style="fill:#ffffff;fill-rule:evenodd"
         inkscape:connector-curvature="0"
         clip-rule="evenodd"
         d="m 355.149,69.922 0.033,-35.789 0,0 c 6.514,-1.291 11.647,-0.117 15.396,3.521 6.037,5.858 5.77,32.254 -9.314,32.254 l 0,0 -6.115,0.014 0,0 m -17.451,-44.924 -0.02,6.129 5.341,1.483 0,0 c 0.507,0 0.761,0.253 0.761,0.761 l 0,0 v 45.671 h 22.047 l 0,0 c 26.547,0 25.938,-54.044 -2.281,-54.044 l 0,0 h -25.848 l 0,0"
         id="path3098" />
      <path
         style="fill:#ffffff;fill-rule:evenodd"
         inkscape:connector-curvature="0"
         clip-rule="evenodd"
         d="m 408.378,35.274 c 18.735,-12.707 23.395,28.442 10.888,35.271 -17.134,9.357 -19.396,-29.5 -10.888,-35.271 l 0,0 m 0.76,-11.036 c -23.783,7.493 -21.199,53.15 3.801,55.566 36.076,3.484 29.759,-66.14 -3.801,-55.566 l 0,0"
         id="path3100" />
      <path
         style="fill:#ffffff;fill-rule:evenodd"
         inkscape:connector-curvature="0"
         clip-rule="evenodd"
         d="m 141.91,59.657 v 0.761 l 0,0 c 0,14.31 20.983,25.478 37.27,15.978 13.003,-7.584 17.698,-30.497 -5.001,-37.939 l 0,0 -11.337,-3.717 0,0 c -9.948,-3.261 -11.437,-13.464 -4.599,-18.837 6.121,-4.809 17.709,-2.312 19.4,8.741 l 0,0 h 9.123 l 0,0 C 187.38,14.51 182.311,8.166 171.56,5.614 145.418,-0.591 133.088,35.152 153.625,42.463 l 0,0 13.479,4.798 0,0 c 22.231,7.915 10.772,28.589 -5.428,23.054 -5.575,-1.905 -8.363,-4.696 -8.363,-8.373 l 0,0 V 59.659 H 141.91 l 0,-0.002"
         id="path3102" />
      <path
         style="fill:#ffffff;fill-rule:evenodd"
         inkscape:connector-curvature="0"
         clip-rule="evenodd"
         d="m 73.181,124.16 c -2.858,-1.778 -5.48,-2.749 -7.971,-2.328 -8.425,3.129 -17.568,5.81 -27.568,4.655 -0.404,0.069 -9.439,-2.67 -14.109,-7.143 l 0,0 -4.491,-3.665 0,0 c 1.674,4.957 5.376,9.082 11.107,12.379 8.37,4.813 19.536,4.669 33.501,-0.432 6.2,-2.264 9.375,-3.42 9.531,-3.466 l 0,0"
         id="path3104" />
      <path
         style="fill:#ffffff;fill-rule:evenodd"
         inkscape:connector-curvature="0"
         clip-rule="evenodd"
         d="m 43.577,91.377 c 0.101,2.617 -0.152,5.946 -0.761,9.987 -1.672,11.094 -4.629,18.738 -8.871,22.935 l 0,0 4.982,1.33 0,0 c 9.24,-11.147 9.104,-32.41 8.968,-32.589 l 0,0 -4.318,-1.663 0,0"
         id="path3106" />
      <path
         style="fill:#ffffff;fill-rule:evenodd"
         inkscape:connector-curvature="0"
         clip-rule="evenodd"
         d="m 97.702,125.739 v -0.332 l 0,0 c 0,-4.078 -11.84,-13.506 -21.257,-7.648 l 0,0 -2.807,-5.289 0,0 C 71.421,109.08 67.809,96.719 67.809,92.153 l 0,0 v -4.655 l -3.985,1.995 0,0 c -0.046,7.102 2.825,25.021 10.628,33.587 1,0.015 1.592,-0.514 1.699,-0.529 4.042,-2.781 9.295,-2.428 13.58,-1.466 0.153,-0.022 1.048,0.371 2.689,1.179 l 0,0 5.282,3.475 0,0"
         id="path3108" />
      <path
         style="fill:#ffffff;fill-rule:evenodd"
         inkscape:connector-curvature="0"
         clip-rule="evenodd"
         d="m 35.439,76.523 c 0.042,0.589 0.264,1.144 0.665,1.663 0.511,0.664 1.861,0.631 4.049,-0.1 3.351,-1.118 5.434,-2.36 6.247,-3.725 -0.226,-0.09 -0.336,-0.256 -0.333,-0.499 l 0,0 h -1.329 l -9.299,2.661 0,0"
         id="path3110" />
      <path
         style="fill:#ffffff;fill-rule:evenodd"
         inkscape:connector-curvature="0"
         clip-rule="evenodd"
         d="m 61.777,72.827 c -0.135,0.677 0.196,1.34 0.992,1.99 1.548,1.268 2.602,1.823 3.16,1.668 1.033,-0.287 1.421,-0.951 1.162,-1.994 l 0,0 -4.318,-1.664 h -0.996 l 0,0"
         id="path3112" />
      <path
         style="fill:#ffffff;fill-rule:evenodd"
         inkscape:connector-curvature="0"
         clip-rule="evenodd"
         d="m 23.462,45.432 c -3.528,-0.636 -6.075,-2.132 -7.639,-4.489 6.93,-3.849 15.866,-0.041 14.282,3.16 -0.765,1.546 -2.98,1.99 -6.643,1.329 l 0,0 M 14.5,36.069 C 13.721,35.32 13.61,33.215 14.168,29.751 15.627,20.69 23.217,18.112 25.83,18.112 l 0,0 h 5.941 l 0,0 c 0.221,0 0.332,-0.111 0.332,-0.333 l 0,0 v -0.665 l 0,0 C 22.872,7.997 0.036,23.896 9.851,38.397 -0.114,43.214 -3.045,56.012 3.495,66.286 c 6.046,9.498 14.697,13.947 25.952,13.347 0.024,-0.255 0.024,-0.476 0,-0.665 -1.544,-1.738 -2.849,-2.777 -3.917,-3.112 l 0,0 -5.311,-1.673 0,0 C 12.822,71.854 8.462,66.329 7.14,57.609 6.316,52.175 8.216,47.434 12.84,43.386 l 0,0 h 0.665 l 2.617,2.141 0,0 c 2.914,2.384 11.388,3.406 14.864,0.414 5.591,-4.813 -6.922,-13.56 -13.496,-10.536 -1.66,0.763 -2.656,0.984 -2.99,0.664 l 0,0"
         id="path3114" />
      <path
         style="fill:#ffffff;fill-rule:evenodd"
         inkscape:connector-curvature="0"
         clip-rule="evenodd"
         d="M 46.97,49.681 C 30.298,46.674 18.634,70.211 34.865,85.116 47.498,96.716 67.639,91.766 75.596,77.823 85.189,61.018 79.077,45.652 57.263,31.724 54.92,30.227 53.478,29.283 52.934,28.89 24.811,8.54 63.041,-8.35 70.552,13.933 l 0,0 1.329,0.166 0,0 c 1.389,-1.058 0.906,-3.242 -1.447,-6.552 -14.222,-20.015 -56.45,3.139 -18.95,30.262 5.04,3.645 7.816,5.681 8.333,6.113 23.476,19.566 5.23,50.994 -17.025,40.914 C 23.625,76.152 30.676,51.011 45.973,51.011 l 0,0 h 0.997 v -1.33 l 0,0"
         id="path3116" />
      <path
         style="fill:#ffffff;fill-rule:evenodd"
         inkscape:connector-curvature="0"
         clip-rule="evenodd"
         d="M 473.181,117.208 V 96.073 h -5.322 v 2.284 l 0,0 c 1.786,0 2.801,0.253 3.041,0.761 l 0,0 v 18.864 6.838 h 14.445 v -2.283 h -12.164 v -5.329 l 0,0"
         id="path3118" />
      <path
         style="fill:#ffffff;fill-rule:evenodd"
         inkscape:connector-curvature="0"
         clip-rule="evenodd"
         d="m 380.916,95.469 v 2.283 l 0,0 c 2.027,0 3.04,0.254 3.04,0.762 l 0,0 v 20.551 l 0,0 c 0,1.726 1.119,3.352 3.355,4.881 5.826,3.986 14.158,-0.549 14.158,-4.257 l 0,0 V 95.493 l -2.307,-0.024 v 21.313 l 0,0 c 0,3.553 -1.277,5.107 -3.82,6.149 -1.619,0.695 -3.321,0.705 -4.742,0.116 -2.51,-0.917 -3.603,-1.951 -3.603,-3.982 l 0,0 V 96.23 l 0,0 c 0,-0.508 -0.253,-0.762 -0.761,-0.762 l 0,0 h -5.32 l 0,10e-4"
         id="path3120" />
      <path
         style="fill:#ffffff;fill-rule:evenodd"
         inkscape:connector-curvature="0"
         clip-rule="evenodd"
         d="m 449.277,116.401 c 1.305,7.563 -10.394,9.309 -12.925,0 -0.938,-3.195 -1.053,-7.132 0,-12.18 1.144,-5.95 9.816,-10.234 12.925,-1.142 l 0,0 2.53,-0.058 0,0 c 0.257,-0.447 0.143,-1.277 -0.25,-2.606 -4.232,-11.638 -22.324,-4.068 -18.246,14.463 3.667,16.655 20.037,10.289 19.007,1.522 l 0,0 h -3.041 l 0,10e-4"
         id="path3122" />
      <path
         style="fill:#ffffff;fill-rule:evenodd"
         inkscape:connector-curvature="0"
         clip-rule="evenodd"
         d="m 245.604,95.566 -0.049,2.186 0,0 c 2.027,0 3.041,0.254 3.041,0.762 l 0,0 v 20.551 l 0,0 c 0,1.726 1,3.615 3.236,5.146 3.208,2.194 7.545,1.859 10.463,0.448 2.381,-1.152 3.813,-3.304 3.813,-4.97 l 0,0 0.024,-24.172 -2.293,-0.049 -0.039,21.313 0,0 c 0,3.553 -1.276,5.107 -3.82,6.149 -1.619,0.695 -3.32,0.705 -4.741,0.116 -2.511,-0.917 -3.604,-1.951 -3.604,-3.982 l 0,0 0.047,-23.498 h -6.078 l 0,0"
         id="path3124" />
      <path
         style="fill:#ffffff;fill-rule:evenodd"
         inkscape:connector-curvature="0"
         clip-rule="evenodd"
         d="m 440.716,24.998 -0.018,6.079 6.48,2.294 -0.141,45.624 11.164,0.047 V 34.133 h 9.883 l 0,0 c 4.055,0 6.082,2.283 6.082,6.851 l 0,0 v 38.059 h 10.645 V 37.938 l 0,0 c 0,-7.226 -10.223,-12.94 -13.685,-12.94 l 0,0 h -30.41 l 0,0"
         id="path3126" />
      <path
         style="fill:#ffffff;fill-rule:evenodd"
         inkscape:connector-curvature="0"
         clip-rule="evenodd"
         d="M 96.343,43.386 C 110.598,57.725 94.76,78.4 76.746,76.64 c -0.638,1.268 -0.97,1.987 -0.996,2.162 0.228,0.089 0.336,0.255 0.332,0.498 0.6,-0.032 1.596,0.079 2.989,0.333 21.063,3.844 42.253,-26.583 20.094,-41.401 1.086,-4.162 1.584,-7.21 1.495,-9.146 -0.63,-13.732 -22.581,-19.357 -28.896,-9.644 0.023,0.178 1.547,-0.058 4.57,-0.707 0.333,-0.071 1.562,-0.246 3.687,-0.52 12.302,-1.592 16.794,12.823 13.997,18.187 -8.107,-4.078 -18.245,1.044 -17.603,8.313 2.632,4.45 12.204,4.034 15.515,1.377 l 0,0 2.752,-2.208 1.661,-0.498 0,0 m -11.6,1.662 c -3.663,0.661 -5.877,0.217 -6.643,-1.33 -1.583,-3.2 7.352,-7.008 14.282,-3.159 -1.564,2.357 -4.11,3.853 -7.639,4.489 l 0,0"
         id="path3128" />
      <path
         style="fill:#ffffff;fill-rule:evenodd"
         inkscape:connector-curvature="0"
         clip-rule="evenodd"
         d="m 182.461,123.041 c -8.932,0.546 -8.656,-16.856 -6.191,-21.265 1.888,-3.376 4.078,-4.662 6.142,-4.635 2.064,-0.027 4.304,1.259 6.191,4.635 2.464,4.409 2.79,21.811 -6.142,21.265 l 0,0 m -0.05,2.502 c 0.826,-0.007 1.747,-0.132 2.661,-0.388 11.702,-3.291 10.26,-30.695 -2.611,-30.174 -12.871,-0.521 -14.363,26.883 -2.661,30.174 0.914,0.256 1.784,0.381 2.611,0.388 l 0,0"
         id="path3130" />
      <path
         style="fill:#ffffff;fill-rule:evenodd"
         inkscape:connector-curvature="0"
         clip-rule="evenodd"
         d="m 231.72,123.041 c -8.932,0.546 -8.656,-16.856 -6.192,-21.265 1.888,-3.376 4.079,-4.662 6.142,-4.635 2.063,-0.027 4.304,1.259 6.191,4.635 2.465,4.409 2.79,21.811 -6.141,21.265 l 0,0 m -0.051,2.502 c 0.826,-0.007 1.748,-0.132 2.662,-0.388 11.701,-3.291 10.26,-30.695 -2.611,-30.174 -12.872,-0.521 -14.363,26.883 -2.661,30.174 0.914,0.256 1.785,0.381 2.61,0.388 l 0,0"
         id="path3132" />
      <path
         style="fill:#ffffff;fill-rule:evenodd"
         inkscape:connector-curvature="0"
         clip-rule="evenodd"
         d="m 366.222,123.041 c -8.932,0.546 -8.656,-16.856 -6.191,-21.265 1.887,-3.376 4.078,-4.662 6.141,-4.635 2.064,-0.027 4.304,1.259 6.191,4.635 2.464,4.409 2.788,21.811 -6.141,21.265 l 0,0 m -0.051,2.502 c 0.826,-0.007 1.748,-0.132 2.661,-0.388 11.702,-3.291 10.26,-30.695 -2.61,-30.174 -12.871,-0.521 -14.363,26.883 -2.662,30.174 0.914,0.256 1.785,0.381 2.611,0.388 l 0,0"
         id="path3134" />
    </g>
  </g>
</svg>
